<?xml version="1.0" encoding="UTF-8" standalone="no"?>
<!-- Created with Inkscape (http://www.inkscape.org/) -->

<svg
   xmlns:dc="http://purl.org/dc/elements/1.1/"
   xmlns:cc="http://creativecommons.org/ns#"
   xmlns:rdf="http://www.w3.org/1999/02/22-rdf-syntax-ns#"
   xmlns:svg="http://www.w3.org/2000/svg"
   xmlns="http://www.w3.org/2000/svg"
   xmlns:sodipodi="http://sodipodi.sourceforge.net/DTD/sodipodi-0.dtd"
   xmlns:inkscape="http://www.inkscape.org/namespaces/inkscape"
   id="svg2"
   version="1.1"
   inkscape:version="0.91 r13725"
   xml:space="preserve"
   width="744.09998"
   height="1052.3625"
   viewBox="0 0 744.09998 1052.3625"
   sodipodi:docname="simple resume.ai.svg"><metadata
     id="metadata8"><rdf:RDF><cc:Work
         rdf:about=""><dc:format>image/svg+xml</dc:format><dc:type
           rdf:resource="http://purl.org/dc/dcmitype/StillImage" /><dc:title></dc:title></cc:Work></rdf:RDF></metadata><defs
     id="defs6"><clipPath
       clipPathUnits="userSpaceOnUse"
       id="clipPath150"><path
         d="m 0,841.89 595.28,0 L 595.28,0 0,0 0,841.89 Z"
         id="path152"
         inkscape:connector-curvature="0" /></clipPath><clipPath
       clipPathUnits="userSpaceOnUse"
       id="clipPath220"><path
         d="m 0,841.89 595.28,0 L 595.28,0 0,0 0,841.89 Z"
         id="path222"
         inkscape:connector-curvature="0" /></clipPath><clipPath
       clipPathUnits="userSpaceOnUse"
       id="clipPath300"><path
         d="m 0,841.89 595.28,0 L 595.28,0 0,0 0,841.89 Z"
         id="path302"
         inkscape:connector-curvature="0" /></clipPath><clipPath
       clipPathUnits="userSpaceOnUse"
       id="clipPath404"><path
         d="m 0,841.89 595.28,0 L 595.28,0 0,0 0,841.89 Z"
         id="path406"
         inkscape:connector-curvature="0" /></clipPath><clipPath
       clipPathUnits="userSpaceOnUse"
       id="clipPath452"><path
         d="m 0,841.89 595.28,0 L 595.28,0 0,0 0,841.89 Z"
         id="path454"
         inkscape:connector-curvature="0" /></clipPath><clipPath
       clipPathUnits="userSpaceOnUse"
       id="clipPath516"><path
         d="m 0,841.89 595.28,0 L 595.28,0 0,0 0,841.89 Z"
         id="path518"
         inkscape:connector-curvature="0" /></clipPath><clipPath
       clipPathUnits="userSpaceOnUse"
       id="clipPath580"><path
         d="m 0,841.89 595.28,0 L 595.28,0 0,0 0,841.89 Z"
         id="path582"
         inkscape:connector-curvature="0" /></clipPath></defs><sodipodi:namedview
     pagecolor="#ffffff"
     bordercolor="#666666"
     borderopacity="1"
     objecttolerance="10"
     gridtolerance="10"
     guidetolerance="10"
     inkscape:pageopacity="0"
     inkscape:pageshadow="2"
     inkscape:window-width="1366"
     inkscape:window-height="744"
     id="namedview4"
     showgrid="false"
     inkscape:zoom="2.3576804"
     inkscape:cx="194.92125"
     inkscape:cy="299.64237"
     inkscape:window-x="0"
     inkscape:window-y="24"
     inkscape:window-maximized="1"
     inkscape:current-layer="g10" /><g
     id="g10"
     inkscape:groupmode="layer"
     inkscape:label="simple resume"
     transform="matrix(1.25,0,0,-1.25,0,1052.3625)"><text
       transform="matrix(1,0,0,-1,88.8755,515.9375)"
       style="font-variant:normal;font-weight:normal;font-stretch:normal;font-size:14px;font-family:'Bebas Neue';-inkscape-font-specification:BebasNeue;writing-mode:lr-tb;fill:#414142;fill-opacity:1;fill-rule:nonzero;stroke:none"
       id="text12"><tspan
         x="0 8.974 15.918 19.488001 26.040001 33.152 40.124001 46.928001 53.493999 59.877998 63.938 70.882004 78.260002"
         y="0"
         sodipodi:role="line"
         id="tspan14">MY EDUCATION.</tspan><tspan
         x="0"
         sodipodi:role="line"
         id="tspan16"
         y="0">.</tspan><tspan
         x="0 7.098 14.182 21.125999 28.098 34.481998 38.051998 47.026001 53.577999"
         y="-185.808"
         sodipodi:role="line"
         id="tspan18">about me.</tspan></text>
<text
       transform="matrix(1,0,0,-1,28.6758,776.6436)"
       style="font-variant:normal;font-weight:300;font-stretch:normal;font-size:8px;font-family:'Source Sans Pro Light';-inkscape-font-specification:SourceSansPro-Light;writing-mode:lr-tb;fill:#58595b;fill-opacity:1;fill-rule:nonzero;stroke:none"
       id="text20"><tspan
         sodipodi:role="line"
         id="tspan22"
         x="0"
         y="0">Android &amp; web developer</tspan></text>
<text
       transform="scale(1,-1)"
       style="font-variant:normal;font-weight:normal;font-stretch:normal;font-size:20px;font-family:'Bebas Neue';-inkscape-font-specification:BebasNeue;writing-mode:lr-tb;fill:#414142;fill-opacity:1;fill-rule:nonzero;stroke:none"
       id="text24"
       x="18.742939"
       y="-790.98254"><tspan
         sodipodi:role="line"
         id="tspan26"
         x="18.742939"
         y="-790.98254">Navdeep Singh</tspan></text>
<text
       transform="matrix(1,0,0,-1,88.8765,304.9365)"
       style="font-variant:normal;font-weight:normal;font-stretch:normal;font-size:14px;font-family:'Bebas Neue';-inkscape-font-specification:BebasNeue;writing-mode:lr-tb;fill:#414142;fill-opacity:1;fill-rule:nonzero;stroke:none"
       id="text28"><tspan
         x="0 8.974 15.918 19.488001 26.040001 33.459999 40.138 46.689999 53.717999 57.778 64.330002 71.708 78.512001 85.064003"
         y="0"
         sodipodi:role="line"
         id="tspan30">MY Experience.</tspan><tspan
         x="153.244 160.62199 167.56599 174.64999 181.73399 185.79401 192.34599 198.98199 202.552 209.748 213.31799 217.37801 224.756 231.14 237.692 244.72 251.272 257.90799"
         y="181.524"
         sodipodi:role="line"
         id="tspan32">hobbies &amp; interest</tspan></text>
<text
       transform="matrix(1,0,0,-1,88.8765,280.626)"
       style="font-variant:normal;font-weight:300;font-stretch:normal;font-size:7px;font-family:'Source Sans Pro Light';-inkscape-font-specification:SourceSansPro-Light;writing-mode:lr-tb;fill:#414142;fill-opacity:1;fill-rule:nonzero;stroke:none"
       id="text34"><tspan
         x="0 3.3529999 6.7059999 10.059 13.412 14.805 16.898001 18.291 22.099001 24.247999 27.629 30.464001 33.845001 37.569"
         y="0"
         sodipodi:role="line"
         id="tspan36">2013 - present</tspan></text>
<text
       transform="matrix(1,0,0,-1,88.8765,268.626)"
       style="font-variant:normal;font-weight:bold;font-stretch:normal;font-size:10px;font-family:'Source Sans Pro';-inkscape-font-specification:SourceSansPro-Bold;writing-mode:lr-tb;fill:#414142;fill-opacity:1;fill-rule:nonzero;stroke:none"
       id="text38"><tspan
         x="0 5.2399998 11.4 16.879999 22.360001 27.479 33.209 39.859001 45.679001 51.159"
         y="0"
         sodipodi:role="line"
         id="tspan40">FREELANCER</tspan></text>
<text
       transform="matrix(1,0,0,-1,88.8765,260.2261)"
       style="font-variant:normal;font-weight:300;font-stretch:normal;font-size:7px;font-family:'Source Sans Pro Light';-inkscape-font-specification:SourceSansPro-Light;writing-mode:lr-tb;fill:#414142;fill-opacity:1;fill-rule:nonzero;stroke:none"
       id="text42"><tspan
         x="0 5.3899999 8.7709999 12.579 13.972 18.200001 21.580999 24.416 26.018999 29.427999 33.152 36.533001 38.751999 40.145 44.169998 45.563 49.791 53.256001 56.293999 59.674999 61.334 65.079002 68.887001 74.570999 77.952003 81.676003"
         y="0"
         sodipodi:role="line"
         id="tspan44">Web Designer &amp; Development</tspan><tspan
         x="0 3.7449999 6.888 9.0026999 12.7477 16.5557 19.936701 22.155701 23.5487 26.901699 30.2547 33.6077"
         y="21.601999"
         sodipodi:role="line"
         id="tspan46">october 2013</tspan></text>
<text
       transform="matrix(1,0,0,-1,88.8765,226.6255)"
       style="font-variant:normal;font-weight:bold;font-stretch:normal;font-size:10px;font-family:'Source Sans Pro';-inkscape-font-specification:SourceSansPro-Bold;writing-mode:lr-tb;fill:#414142;fill-opacity:1;fill-rule:nonzero;stroke:none"
       id="text48"><tspan
         x="0 5.73 9.71 13.54 16.299999 24.870001 30.209999 34.639999 39.98 42.060001 47.619999 51.450001 57.130001 62.860001 65.620003 71.069 74.069 77.079002 82.799004"
         y="0"
         sodipodi:role="line"
         id="tspan50">Artimasa Studio.Inc</tspan></text>
<text
       transform="matrix(1,0,0,-1,88.8765,218.2256)"
       style="font-variant:normal;font-weight:300;font-stretch:normal;font-size:7px;font-family:'Source Sans Pro Light';-inkscape-font-specification:SourceSansPro-Light;writing-mode:lr-tb;fill:#414142;fill-opacity:1;fill-rule:nonzero;stroke:none"
       id="text52"><tspan
         x="0 3.1919999 6.4959998 8.6800003 10.7947 14.1757 16.394699 17.787701 21.8337 24.0527 27.755699 30.5907 34.286701 37.072701 41.5457 45.0387 48.762699 52.570702 55.6227 61.306702 64.799698 66.913696 70.294701 71.687698 75.369698 77.588699 79.772697 81.375702 84.210701"
         y="0"
         sodipodi:role="line"
         id="tspan54">Letter Brush Handymate Artist</tspan><tspan
         x="0 3.3529999 6.7059999 10.059 13.412 14.805 16.898001 18.291 21.643999 24.997 28.35"
         y="24.598"
         sodipodi:role="line"
         id="tspan56">2009 - 2012</tspan></text>
<text
       transform="matrix(1,0,0,-1,88.8765,181.6255)"
       style="font-variant:normal;font-weight:bold;font-stretch:normal;font-size:10px;font-family:'Source Sans Pro';-inkscape-font-specification:SourceSansPro-Bold;writing-mode:lr-tb;fill:#414142;fill-opacity:1;fill-rule:nonzero;stroke:none"
       id="text58"><tspan
         x="0 5.8200002 11.37 15.35 21.07 23.83 28.5 34.209999 39.389999 41.470001 47.82 53 57.43 60.189999 65.529999 71.25 73.330002 79.059998 84.220001 89.400002 95.120003 99.790001"
         y="0"
         sodipodi:role="line"
         id="tspan60">Corniche Design Agency</tspan></text>
<text
       transform="scale(1,-1)"
       style="font-variant:normal;font-weight:300;font-stretch:normal;font-size:7px;line-height:124.00000095%;font-family:'Source Sans Pro Light';-inkscape-font-specification:SourceSansPro-Light;writing-mode:lr-tb;fill:#939598;fill-opacity:1;fill-rule:nonzero;stroke:none"
       id="text62"
       sodipodi:linespacing="124%"
       x="1467.4686"
       y="-179.3333"><tspan
         x="98.377365 102.61237 104.66966 108.16267 111.97066 115.66666 117.26966 120.41267 121.80566 126.03366 129.41466 132.24966 133.85266 137.26166 140.98566 144.36667"
         y="-179.3333"
         sodipodi:role="line"
         id="tspan64">Graphic Designer</tspan><tspan
         x="506.33734 510.28534 514.0304 517.75439 519.79138 523.28436 526.42737 528.75208"
         y="-801.6543"
         sodipodi:role="line"
         id="tspan66">Contact. </tspan><tspan
         sodipodi:role="line"
         id="tspan4813"
         x="98.377365"
         y="0">                                                                                                                                                                gill.222navdeep@gmail.com</tspan><tspan
         sodipodi:role="line"
         x="98.377365"
         y="0"
         id="tspan4963">                                                                                                                                                                 +91,7307883203,7009566713</tspan><tspan
         sodipodi:role="line"
         x="98.377365"
         y="341.97101"
         id="tspan4959">                                                                                                    </tspan><tspan
         x="506.33734 506.33734 506.33734 506.33734 506.33734 506.33734 506.33734 506.33734 506.33734 506.33734 506.33734 506.33734 506.33734 506.33734 506.33734 506.33734 506.33734 506.33734 506.33734 506.33734 506.33734 506.33734 506.33734 506.33734 506.33734 506.33734 506.33734 506.33734 506.33734 506.33734 506.33734 506.33734 506.33734 506.33734 506.33734 506.33734 506.33734 506.33734 510.28534 514.0304 517.75439 519.79138 523.28436 526.42737 528.75208"
         y="-801.6543 -801.6543 -801.6543 -801.6543 -801.6543 -801.6543 -801.6543 -801.6543 -801.6543 -801.6543 -801.6543 -801.6543 -801.6543 -801.6543 -801.6543 -801.6543 -801.6543 -801.6543 -801.6543 -801.6543 -801.6543 -801.6543 -801.6543 -801.6543 -801.6543 -801.6543 -801.6543 -801.6543 -801.6543 -801.6543 -801.6543 -801.6543 -801.6543 -801.6543 -801.6543 -801.6543 -801.6543 -801.6543"
         sodipodi:role="line"
         id="tspan4811">                                     </tspan><tspan
         x="506.33734 506.33734 506.33734 506.33734 506.33734 506.33734 506.33734 506.33734 506.33734 506.33734 506.33734 506.33734 506.33734 506.33734 506.33734 506.33734 506.33734 506.33734 506.33734 506.33734 506.33734 506.33734 506.33734 506.33734 506.33734 506.33734 506.33734 506.33734 506.33734 506.33734 506.33734 506.33734 506.33734 506.33734 506.33734 506.33734 506.33734 506.33734 506.33734 506.33734 506.33734 506.33734 510.28534 514.0304 517.75439 519.79138 523.28436 526.42737 528.75208"
         y="-801.6543 -801.6543 -801.6543 -801.6543 -801.6543 -801.6543 -801.6543 -801.6543 -801.6543 -801.6543 -801.6543 -801.6543 -801.6543 -801.6543 -801.6543 -801.6543 -801.6543 -801.6543 -801.6543 -801.6543 -801.6543 -801.6543 -801.6543 -801.6543 -801.6543 -801.6543 -801.6543 -801.6543 -801.6543 -801.6543 -801.6543 -801.6543 -801.6543 -801.6543 -801.6543 -801.6543 -801.6543 -801.6543 -801.6543 -801.6543 -801.6543 -801.6543"
         sodipodi:role="line"
         id="tspan4809">                                         </tspan><tspan
         x="98.377365"
         sodipodi:role="line"
         id="tspan68"
         y="0">                                                                                                                                                           </tspan><tspan
         x="98.377365"
         sodipodi:role="line"
         y="0"
         id="tspan4937">                                                                                                                                               </tspan><tspan
         x="98.377365"
         sodipodi:role="line"
         y="inf"
         id="tspan4951">                                   </tspan><tspan
         x="98.377365"
         sodipodi:role="line"
         y="0"
         id="tspan4953"></tspan><tspan
         x="98.377365"
         sodipodi:role="line"
         y="0"
         id="tspan4955">     </tspan><tspan
         x="98.377365"
         sodipodi:role="line"
         id="tspan70"
         y="inf"> </tspan><tspan
         x="401.33734 405.01935 408.82736 412.63535 414.78436 418.16534 421.00034"
         y="-801.6543"
         sodipodi:role="line"
         id="tspan72"
         style="text-align:end;text-anchor:end">Address</tspan><tspan
         x="98.377365"
         sodipodi:role="line"
         id="tspan4791"
         y="inf">                                   .                                                                                             41,Josan Colony </tspan><tspan
         x="98.377365"
         sodipodi:role="line"
         y="inf"
         id="tspan4801">                                                                                                                                Amritsar,</tspan><tspan
         x="98.377365"
         sodipodi:role="line"
         y="0"
         id="tspan4957">                                                                                                                                 Punjab-143001</tspan><tspan
         x="98.377365"
         sodipodi:role="line"
         y="0"
         id="tspan4803">                                                                                                                          </tspan><tspan
         x="440.34836 440.34836 440.34836 440.34836 440.34836 440.34836 440.34836 440.34836 440.34836 440.34836 440.34836 440.34836 440.34836 440.34836 440.34836 440.34836 440.34836 440.34836 440.34836 440.34836 440.34836 440.34836 440.34836 440.34836 440.34836 440.34836 440.34836 440.34836 440.34836 440.34836 440.34836 440.34836 440.34836 440.34836 440.34836 440.34836 440.34836 440.34836 440.34836 440.34836 440.34836 440.34836 440.34836 440.34836 440.34836 440.34836 440.34836 440.34836 440.34836 440.34836 440.34836 440.34836 440.34836 440.34836 440.34836 440.34836 440.34836 440.34836 440.34836 440.34836 440.34836 440.34836 440.34836 440.34836 440.34836 440.34836 440.34836 440.34836 440.34836 440.34836 440.34836 440.34836 440.34836 440.34836 440.34836 440.34836 440.34836 440.34836 440.34836 440.34836 440.34836 440.34836 440.34836 440.34836 440.34836 440.34836 440.34836"
         sodipodi:role="line"
         id="tspan76">                                                                                       </tspan></text>
<g
       id="g78"
       transform="translate(63.8052,168.751)"><path
         d="M 0,0 0,562.276"
         style="fill:none;stroke:#58595b;stroke-width:0.5;stroke-linecap:butt;stroke-linejoin:miter;stroke-miterlimit:10;stroke-dasharray:none;stroke-opacity:1"
         id="path80"
         inkscape:connector-curvature="0" /></g><text
       transform="matrix(1,0,0,-1,88.8047,679.7173)"
       style="font-variant:normal;font-weight:300;font-stretch:normal;font-size:7px;font-family:'Source Sans Pro Light';-inkscape-font-specification:SourceSansPro-Light;writing-mode:lr-tb;fill:#414142;fill-opacity:1;fill-rule:nonzero;stroke:none"
       id="text82"><tspan
         x="0 4.4520001 7.8330002 13.517 14.91 17.0583 20.439301 26.123301 27.5163 31.275299 34.978298 36.581299 37.9743 40.999001 44.743999 48.467999 49.861 53.668999 57.049999 60.858002 62.250999 65.632004 68.396301 71.419601 74.800598 77.635597 79.028603 82.331902 84.5159 85.908897 87.511902 90.843903 94.224899 97.948898 101.7569 103.1499 106.5309 108.1899 109.7929 112.6279 114.8119 117.0309 120.7339 126.4179"
         y="0"
         sodipodi:role="line"
         id="tspan84">Nem rem qui con ped exces et igend elistrum </tspan><tspan
         x="0 3.3039999 5.6279998 7.1609998 8.5539999 11.8573 14.0413 15.4343 18.927299 22.6513 26.459299 29.8403 33.6483 35.251301 38.0863 39.479301 41.082298 44.890301 46.493301 49.874298 53.598301 55.201302 58.036301 59.429298 61.032299 62.691299 64.294296 68.053299 71.756302 75.249298 80.933296 82.466301 83.859299 86.694298 88.297302 89.6903 93.435303 95.276299 97.117302 98.720299 101.8633 103.4663 106.9593 112.6433 114.0363 116.1846 119.5656 125.2496"
         y="10.003"
         sodipodi:role="line"
         id="tspan86">et, et andebis ipienis iliquam, si officiam rem </tspan><tspan
         x="0 1.603 5.3060002 7.5250001 8.9180002 12.411 14.07 15.673 19.431999 23.135 26.516001 27.909 30.947001 34.692001 36.351002 40.054001 43.862 45.897598 49.390598 50.7836 55.2356 58.6166 64.300598 65.693604 67.8433 71.224297 76.908302 78.3013 82.060303 85.763298 87.366302 88.7593 91.7826 95.527603 99.251602 100.6446 104.4526 107.8336 111.6416 113.0346 116.4156 119.1799 122.2032 125.5842 128.4192"
         y="20.006001"
         sodipodi:role="line"
         id="tspan88">iur alique volupta Nem rem qui con ped exces </tspan><tspan
         x="0 3.3039999 5.4879999 6.881 10.374 12.033 13.636 16.968 20.349001 24.073 27.881001 30.667 32.27 35.105 37.289001 39.507999 43.210999 48.895 50.287998 53.592701 55.916 57.449001 58.841999 62.145302 64.3293 65.722298 69.215302 72.939301 76.747299 80.128304 83.936302 85.539299 88.374298 89.767303 91.3703 95.178299 96.781303 100.1623 103.8863 105.4893 108.3243"
         y="30.009001"
         sodipodi:role="line"
         id="tspan90">et aligend istrum et, et andebis ipienis </tspan><tspan
         x="0 1.603 3.2620001 4.8649998 8.6239996 12.327 15.82 21.504 23.037001 24.43 27.264999 28.868 30.261 34.006001 35.847 37.688 39.291 42.433998 44.036999 47.529999 53.214001 54.606998 56.755299 60.136299 65.820297 67.213303 68.816299 72.519302 74.738297 76.131302 79.624298 81.283302 82.886299 86.645302 90.348297 93.729301 95.122299 98.160301 101.9053 103.5643 107.2673 111.0753 113.1123 116.6053"
         y="40.012001"
         sodipodi:role="line"
         id="tspan92">iliquam, si officiam rem iur alique volupta </tspan><tspan
         x="0 3.381 6.5240002 8.6372995 12.3823 14.6013 18.3043 23.9883 27.747299 31.4503 34.943298 37.1273 38.520302 40.207298 43.910301 47.319302 48.922298 52.415298 53.8083 57.532299 61.277302 65.001297 67.836304 71.2173 74.976303 78.679298 80.282303 81.675301 85.483299 89.228302 90.887299 94.590302 98.3983 100.0013 103.3823 104.7753 108.4993 112.3073 116.0103 119.1533 120.7563 124.2493 127.6303"
         y="50.014999"
         sodipodi:role="line"
         id="tspan94">ectorumquat fugia nonsequi dolupie nduciae </tspan><tspan
         x="0 2.1482999 5.2912998 8.9872999 10.5903 13.7333 15.3363 16.7293 20.4743 22.3153 24.1563 25.7593 28.9023 30.505301 32.689301 34.292301 37.9953 43.679298 45.0723 48.831299 52.534302 54.137299 56.972301 59.807301 61.410301 63.594299 64.987297 68.480301 70.517998 74.011002 76.124298 79.505302 85.189301 88.948303 92.651299 94.254303 97.747299 101.1283 102.5213 104.6703 108.0513 110.8863 113.7213 117.4243 123.1083 126.4116 128.5956"
         y="60.018002"
         sodipodi:role="line"
         id="tspan96">rchici officitium quissit atatemquiae ressumet </tspan><tspan
         x="0 3.0380001 6.783 8.4420004 12.187 14.406 16.009001 18.844 20.237 25.921 29.666 31.325001 35.07 37.289001 39.437302 43.182301 44.575298 46.7943 48.397301 52.1423 55.866299 58.701302 62.082298 65.806297 67.199303 68.802299 72.498299 74.101303 77.244301 78.847298 82.340302 88.0243 89.417297 92.455299 96.200302 97.859299 101.5623 105.3703 107.4073 110.9003 113.0136 116.3946 122.0786"
         y="70.021004"
         sodipodi:role="line"
         id="tspan98">voloris molorro rionsen ihiciam voluptatem </tspan><tspan
         x="0 3.6960001 5.2989998 6.9580002 8.3509998 11.655 13.979 15.512 18.347 19.950001 21.343 25.087999 26.929001 28.77 30.372999 33.515999 35.118999 38.612 44.296001 45.688999 47.837299 51.2183 56.902302 58.2953 59.8983 63.601299 65.820297 67.213303 70.706299 72.365303 73.9683 77.727303 81.430298 84.811302 86.2043 89.242302 92.987297 94.646301 98.349297 102.1573 104.1929 107.6859"
         y="80.024002"
         sodipodi:role="line"
         id="tspan100">hil et.si officiam rem iur alique volupta </tspan><tspan
         x="0 3.381 6.5240002 8.6372995 12.3823 14.6013 18.3043 23.9883 27.747299 31.4503 34.943298 37.1273 38.520302 40.207298 43.910301 47.319302 48.922298 52.415298 53.8083 57.532299 61.277302 65.001297 67.836304 71.2173 74.976303 78.679298 80.282303 81.675301 85.483299 89.228302 90.887299 94.590302 98.3983 100.0013 103.3823 104.7753 108.4993 112.3073 116.0103 119.1533 120.7563 124.2493 127.6303"
         y="90.027"
         sodipodi:role="line"
         id="tspan102">ectorumquat fugia nonsequi dolupie nduciae </tspan><tspan
         x="0 2.1482999 5.2912998 8.9872999 10.5903 13.7333 15.3363 16.7293 20.4743 22.3153 24.1563 25.7593 28.9023 30.505301 32.689301 34.292301 37.9953 43.679298 45.0723 48.831299 52.534302 54.137299 56.972301 59.807301 61.410301 63.594299 64.987297 68.480301 70.517998 74.011002 76.124298 79.505302 85.189301 88.948303 92.651299 94.254303 97.747299 101.1283 102.5213 104.6703 108.0513 110.8863 113.7213 117.4243 123.1083 126.4116 128.5956"
         y="100.03"
         sodipodi:role="line"
         id="tspan104">rchici officitium quissit atatemquiae ressumet </tspan><tspan
         x="0 3.0380001 6.783 8.4420004 12.187 14.406 16.009001 18.844 20.237 25.921 29.666 31.325001 35.07 37.289001 39.437302 43.182301 44.575298 46.7943 48.397301 52.1423 55.866299 58.701302 62.082298 65.806297 67.199303 68.802299 72.498299 74.101303 77.244301 78.847298 82.340302 88.0243 89.417297 92.455299 96.200302 97.859299 101.5623 105.3703 107.4073 110.9003 113.0136 116.3946 122.0786"
         y="110.033"
         sodipodi:role="line"
         id="tspan106">voloris molorro rionsen ihiciam voluptatem </tspan><tspan
         x="0 3.6960001 5.2989998 6.9580002 8.3509998 11.655 13.979"
         y="120.036"
         sodipodi:role="line"
         id="tspan108">hil et.</tspan><tspan
         sodipodi:role="line"
         id="tspan110"
         x="0"
         y="0"></tspan><tspan
         sodipodi:role="line"
         x="0"
         y="0"
         id="tspan5083"></tspan><tspan
         sodipodi:role="line"
         x="0"
         y="0"
         id="tspan5085"></tspan><tspan
         sodipodi:role="line"
         x="0"
         y="0"
         id="tspan5087"></tspan><tspan
         sodipodi:role="line"
         x="0"
         y="0"
         id="tspan5089"></tspan><tspan
         sodipodi:role="line"
         x="0"
         y="0"
         id="tspan5091"></tspan><tspan
         sodipodi:role="line"
         x="0"
         y="0"
         id="tspan5093"></tspan><tspan
         sodipodi:role="line"
         x="0"
         y="0"
         id="tspan5095">2013-2018</tspan></text>
<text
       transform="matrix(1,0,0,-1,88.8765,480.4404)"
       style="font-variant:normal;font-weight:bold;font-stretch:normal;font-size:10px;font-family:'Source Sans Pro';-inkscape-font-specification:SourceSansPro-Bold;writing-mode:lr-tb;fill:#414142;fill-opacity:1;fill-rule:nonzero;stroke:none"
       id="text112"><tspan
         sodipodi:role="line"
         id="tspan114"
         x="0"
         y="0">GNDU RC Sathiala</tspan></text>
<text
       transform="matrix(1,0,0,-1,88.8765,472.0405)"
       style="font-variant:normal;font-weight:300;font-stretch:normal;font-size:7px;font-family:'Source Sans Pro Light';-inkscape-font-specification:SourceSansPro-Light;writing-mode:lr-tb;fill:#414142;fill-opacity:1;fill-rule:nonzero;stroke:none"
       id="text116"><tspan
         sodipodi:role="line"
         id="tspan118"
         x="0"
         y="0">Amritsar</tspan><tspan
         sodipodi:role="line"
         id="tspan120"
         x="0"
         y="8.75">Btech CSE</tspan><tspan
         sodipodi:role="line"
         id="tspan122"
         x="0"
         y="17.5"> </tspan><tspan
         x="0"
         sodipodi:role="line"
         id="tspan5061"
         y="26.25">2010-2013</tspan><tspan
         x="0"
         sodipodi:role="line"
         y="35"
         id="tspan5079" /></text>
<text
       transform="matrix(1,0,0,-1,88.8765,427.1924)"
       style="font-variant:normal;font-weight:bold;font-stretch:normal;font-size:10px;font-family:'Source Sans Pro';-inkscape-font-specification:SourceSansPro-Bold;writing-mode:lr-tb;fill:#414142;fill-opacity:1;fill-rule:nonzero;stroke:none"
       id="text124"><tspan
         sodipodi:role="line"
         id="tspan126"
         x="0"
         y="0">Khalsa College School</tspan></text>
<text
       transform="matrix(1,0,0,-1,88.8765,418.7925)"
       style="font-variant:normal;font-weight:300;font-stretch:normal;font-size:7px;font-family:'Source Sans Pro Light';-inkscape-font-specification:SourceSansPro-Light;writing-mode:lr-tb;fill:#414142;fill-opacity:1;fill-rule:nonzero;stroke:none"
       id="text128"><tspan
         sodipodi:role="line"
         id="tspan130"
         x="0"
         y="0">Amritsar</tspan><tspan
         sodipodi:role="line"
         id="tspan132"
         x="0"
         y="8.75">12th</tspan><tspan
         x="0 3.3529999 6.7059999 10.059 13.412 14.805 16.898001 18.291 21.643999"
         y="32.521999"
         sodipodi:role="line"
         id="tspan134">2007 - 2010</tspan></text>
<text
       transform="matrix(1,0,0,-1,88.8765,374.2734)"
       style="font-variant:normal;font-weight:bold;font-stretch:normal;font-size:10px;font-family:'Source Sans Pro';-inkscape-font-specification:SourceSansPro-Bold;writing-mode:lr-tb;fill:#414142;fill-opacity:1;fill-rule:nonzero;stroke:none"
       id="text136"><tspan
         sodipodi:role="line"
         id="tspan138"
         x="0"
         y="0">GH School</tspan></text>
<text
       transform="matrix(1,0,0,-1,88.8765,365.8735)"
       style="font-variant:normal;font-weight:300;font-stretch:normal;font-size:7px;font-family:'Source Sans Pro Light';-inkscape-font-specification:SourceSansPro-Light;writing-mode:lr-tb;fill:#414142;fill-opacity:1;fill-rule:nonzero;stroke:none"
       id="text140"><tspan
         sodipodi:role="line"
         id="tspan142"
         y="0"
         x="0">Ajnala|Asr</tspan><tspan
         x="0"
         sodipodi:role="line"
         id="tspan144"
         y="8.75">SE</tspan></text>
<g
       id="g146"><g
         id="g148"
         clip-path="url(#clipPath150)"><g
           id="g154"
           transform="translate(66.0791,705.7178)"><path
             d="m 0,0 c 0,-1.256 -1.018,-2.274 -2.273,-2.274 -1.256,0 -2.274,1.018 -2.274,2.274 0,1.255 1.018,2.273 2.274,2.273 C -1.018,2.273 0,1.255 0,0"
             style="fill:#58595b;fill-opacity:1;fill-rule:nonzero;stroke:none"
             id="path156"
             inkscape:connector-curvature="0" /></g><g
           id="g158"
           transform="translate(66.0791,705.7178)"><path
             d="m 0,0 c 0,-1.256 -1.018,-2.274 -2.273,-2.274 -1.256,0 -2.274,1.018 -2.274,2.274 0,1.255 1.018,2.273 2.274,2.273 C -1.018,2.273 0,1.255 0,0 Z"
             style="fill:none;stroke:#ffffff;stroke-width:0.5;stroke-linecap:butt;stroke-linejoin:miter;stroke-miterlimit:10;stroke-dasharray:none;stroke-opacity:1"
             id="path160"
             inkscape:connector-curvature="0" /></g><g
           id="g162"
           transform="translate(66.0791,520.4609)"><path
             d="m 0,0 c 0,-1.256 -1.018,-2.274 -2.273,-2.274 -1.256,0 -2.274,1.018 -2.274,2.274 0,1.255 1.018,2.273 2.274,2.273 C -1.018,2.273 0,1.255 0,0"
             style="fill:#58595b;fill-opacity:1;fill-rule:nonzero;stroke:none"
             id="path164"
             inkscape:connector-curvature="0" /></g><g
           id="g166"
           transform="translate(66.0791,520.4609)"><path
             d="m 0,0 c 0,-1.256 -1.018,-2.274 -2.273,-2.274 -1.256,0 -2.274,1.018 -2.274,2.274 0,1.255 1.018,2.273 2.274,2.273 C -1.018,2.273 0,1.255 0,0 Z"
             style="fill:none;stroke:#ffffff;stroke-width:0.5;stroke-linecap:butt;stroke-linejoin:miter;stroke-miterlimit:10;stroke-dasharray:none;stroke-opacity:1"
             id="path168"
             inkscape:connector-curvature="0" /></g><g
           id="g170"
           transform="translate(66.0791,309.7949)"><path
             d="m 0,0 c 0,-1.256 -1.018,-2.273 -2.273,-2.273 -1.256,0 -2.274,1.017 -2.274,2.273 0,1.256 1.018,2.273 2.274,2.273 C -1.018,2.273 0,1.256 0,0"
             style="fill:#58595b;fill-opacity:1;fill-rule:nonzero;stroke:none"
             id="path172"
             inkscape:connector-curvature="0" /></g><g
           id="g174"
           transform="translate(66.0791,309.7949)"><path
             d="m 0,0 c 0,-1.256 -1.018,-2.273 -2.273,-2.273 -1.256,0 -2.274,1.017 -2.274,2.273 0,1.256 1.018,2.273 2.274,2.273 C -1.018,2.273 0,1.256 0,0 Z"
             style="fill:none;stroke:#ffffff;stroke-width:0.5;stroke-linecap:butt;stroke-linejoin:miter;stroke-miterlimit:10;stroke-dasharray:none;stroke-opacity:1"
             id="path176"
             inkscape:connector-curvature="0" /></g><g
           id="g178"
           transform="translate(41.562,514.98)"><path
             d="M 0,0 C 2.252,0 4.079,0.457 4.079,1.02 4.079,1.583 2.252,2.04 0,2.04 -2.253,2.04 -4.079,1.583 -4.079,1.02 -4.079,0.457 -2.253,0 0,0 m 0.063,5.863 c 3.25,0 4.844,-1.72 4.844,-1.72 l 0,-3.569 c 0,0 -1.657,-1.339 -5.098,-1.339 -3.442,0 -4.589,1.339 -4.589,1.339 l 0,3.569 c 0,0 1.593,1.72 4.843,1.72 M 5.766,4.684 c 0,0 -2.344,2.39 -5.575,2.39 -3.157,0 -6.277,-2.39 -6.277,-2.39 l -1.753,0.732 0,-2.147 c 0.277,-0.094 0.478,-0.348 0.478,-0.656 0,-0.311 -0.206,-0.566 -0.486,-0.658 l 0.518,-1.445 -1.529,0 0.523,1.458 c -0.251,0.106 -0.428,0.355 -0.428,0.645 0,0.284 0.171,0.526 0.414,0.637 l 0,2.378 -2.548,1.063 L 0.318,11.726 10.609,6.628 5.766,4.684 Z"
             style="fill:#58595b;fill-opacity:1;fill-rule:evenodd;stroke:none"
             id="path180"
             inkscape:connector-curvature="0" /></g><g
           id="g182"
           transform="translate(34.5254,304.4346)"><path
             d="m 0,0 0,8.68 c 0,0.564 0.457,1.021 1.021,1.021 l 2.042,0 0,-10.722 -2.042,0 C 0.457,-1.021 0,-0.563 0,0 m 5.105,9.701 3.575,0 0,0.51 c 0,0.282 -0.23,0.511 -0.511,0.511 l -2.553,0 c -0.282,0 -0.511,-0.229 -0.511,-0.511 l 0,-0.51 z m -1.021,0 0,0 0,1.021 c 0,0.564 0.458,1.02 1.021,1.02 l 3.575,0 c 0.563,0 1.021,-0.456 1.021,-1.02 l 0,-1.021 0,-10.722 -5.617,0 0,10.722 z m 8.68,-10.722 -2.042,0 0,10.722 2.042,0 c 0.563,0 1.021,-0.457 1.021,-1.021 l 0,-8.68 c 0,-0.563 -0.458,-1.021 -1.021,-1.021"
             style="fill:#58595b;fill-opacity:1;fill-rule:evenodd;stroke:none"
             id="path184"
             inkscape:connector-curvature="0" /></g><g
           id="g186"
           transform="translate(54.4795,309.7959)"><path
             d="m 0,0 c 0,-7.215 -5.848,-13.063 -13.062,-13.063 -7.213,0 -13.062,5.848 -13.062,13.063 0,7.213 5.849,13.062 13.062,13.062 C -5.848,13.062 0,7.213 0,0 Z"
             style="fill:none;stroke:#58595b;stroke-width:0.5;stroke-linecap:butt;stroke-linejoin:miter;stroke-miterlimit:4;stroke-dasharray:none;stroke-opacity:1"
             id="path188"
             inkscape:connector-curvature="0" /></g><g
           id="g190"
           transform="translate(54.4795,520.4609)"><path
             d="m 0,0 c 0,-7.214 -5.848,-13.062 -13.062,-13.062 -7.213,0 -13.062,5.848 -13.062,13.062 0,7.213 5.849,13.062 13.062,13.062 C -5.848,13.062 0,7.213 0,0 Z"
             style="fill:none;stroke:#58595b;stroke-width:0.5;stroke-linecap:butt;stroke-linejoin:miter;stroke-miterlimit:4;stroke-dasharray:none;stroke-opacity:1"
             id="path192"
             inkscape:connector-curvature="0" /></g><g
           id="g194"
           transform="translate(55.7075,309.7949)"><path
             d="M 0,0 5.191,0"
             style="fill:none;stroke:#58595b;stroke-width:0.5;stroke-linecap:butt;stroke-linejoin:miter;stroke-miterlimit:4;stroke-dasharray:none;stroke-opacity:1"
             id="path196"
             inkscape:connector-curvature="0" /></g><g
           id="g198"
           transform="translate(55.6167,520.4609)"><path
             d="M 0,0 5.282,0"
             style="fill:none;stroke:#58595b;stroke-width:0.5;stroke-linecap:butt;stroke-linejoin:miter;stroke-miterlimit:4;stroke-dasharray:none;stroke-opacity:1"
             id="path200"
             inkscape:connector-curvature="0" /></g><g
           id="g202"
           transform="translate(54.4795,704.9043)"><path
             d="m 0,0 c 0,-7.214 -5.848,-13.062 -13.062,-13.062 -7.213,0 -13.062,5.848 -13.062,13.062 0,7.213 5.849,13.062 13.062,13.062 C -5.848,13.062 0,7.213 0,0 Z"
             style="fill:none;stroke:#58595b;stroke-width:0.5;stroke-linecap:butt;stroke-linejoin:miter;stroke-miterlimit:4;stroke-dasharray:none;stroke-opacity:1"
             id="path204"
             inkscape:connector-curvature="0" /></g><g
           id="g206"
           transform="translate(55.6167,705.4438)"><path
             d="M 0,0 5.282,0"
             style="fill:none;stroke:#58595b;stroke-width:0.5;stroke-linecap:butt;stroke-linejoin:miter;stroke-miterlimit:4;stroke-dasharray:none;stroke-opacity:1"
             id="path208"
             inkscape:connector-curvature="0" /></g></g></g><text
       transform="matrix(1,0,0,-1,43.1055,50.3467)"
       style="font-variant:normal;font-weight:300;font-stretch:normal;font-size:7.34549999px;font-family:'Source Sans Pro Light';-inkscape-font-specification:SourceSansPro-Light;writing-mode:lr-tb;fill:#58595b;fill-opacity:1;fill-rule:nonzero;stroke:none"
       id="text210"><tspan
         x="0 4.1428618 8.0727043 10.004571 11.862983 15.410859 69.892433 74.336456 78.001862 83.966408 134.73116 138.22028 140.37985 144.04526 147.2332 150.78108 152.52196 154.26285 155.94496 159.85277 207.1284 211.27127 212.95338 216.86119 220.40907 226.37361"
         y="0"
         sodipodi:role="line"
         id="tspan212">CoffeeGameTravellingCinema</tspan><tspan
         x="278.68094 282.84509 286.04773 289.34586 291.02798 294.32611 296.06699 349.85883 355.04474 358.93051 361.90543 363.58755 420.99265 425.23834 429.16818 433.09802 485.52286 489.76855 493.43396 496.40891 499.95676 503.84253 507.50793 509.24881"
         y="0.79331398"
         sodipodi:role="line"
         id="tspan214">BycicleMusicBookBaseball</tspan></text>
<g
       id="g216"><g
         id="g218"
         clip-path="url(#clipPath220)"><g
           id="g224"
           transform="translate(78.6689,64.3154)"><path
             d="m 0,0 c 0,-14.407 -11.678,-26.086 -26.084,-26.086 -14.406,0 -26.085,11.679 -26.085,26.086 0,14.405 11.679,26.084 26.085,26.084 C -11.678,26.084 0,14.405 0,0 Z"
             style="fill:none;stroke:#a7a9ac;stroke-width:0.5;stroke-linecap:butt;stroke-linejoin:miter;stroke-miterlimit:4;stroke-dasharray:none;stroke-opacity:1"
             id="path226"
             inkscape:connector-curvature="0" /></g><g
           id="g228"
           transform="translate(42.9688,64.208)"><path
             d="m 0,0 c 0,-0.944 3.366,-1.709 7.519,-1.709 4.152,0 7.518,0.765 7.518,1.709 C 15.037,-0.021 0,-0.021 0,0 m 10.866,12.942 c 0,-0.684 -1.121,-1.411 -1.121,-1.411 0,0 2.197,0.392 2.197,1.417 0,1.027 -2.178,0.342 -2.178,1.111 0,0.77 1.078,1.497 1.078,1.497 0,0 -2.069,-0.436 -2.069,-1.503 0,-1.068 2.093,-0.427 2.093,-1.111 M 8.133,12.258 c 0,-0.683 -1.121,-1.41 -1.121,-1.41 0,0 2.196,0.392 2.196,1.417 0,1.025 -2.179,0.342 -2.179,1.111 0,0.769 1.078,1.497 1.078,1.497 0,0 -2.068,-0.435 -2.068,-1.503 0,-1.068 2.094,-0.428 2.094,-1.112 m -3.418,0.684 c 0,-0.684 -1.121,-1.411 -1.121,-1.411 0,0 2.197,0.392 2.197,1.417 0,1.027 -2.18,0.342 -2.18,1.111 0,0.77 1.078,1.497 1.078,1.497 0,0 -2.067,-0.436 -2.067,-1.503 0,-1.068 2.093,-0.427 2.093,-1.111 m 9.172,-8.936 c 0.767,1.178 1.22,2.58 1.22,4.092 0,-0.012 0.002,0.02 0.002,0.079 1.22,0.041 2.567,0.162 2.872,-1.053 0.306,-1.336 -1.926,-2.423 -4.094,-3.118 m 5.287,3.087 c -0.26,2.487 -2.778,2.474 -4.086,2.428 0.006,0.379 0.01,0.683 0.01,0.683 l -15.055,0.005 0,-2.111 c 0,-2.926 1.672,-5.457 4.107,-6.704 l 0,-0.731 6.848,0 0,0.731 c 0.684,0.35 1.297,0.809 1.84,1.34 3.36,0.804 6.883,1.964 6.336,4.359"
             style="fill:#58595b;fill-opacity:1;fill-rule:evenodd;stroke:none"
             id="path230"
             inkscape:connector-curvature="0" /></g><g
           id="g232"
           transform="translate(147.8936,64.3154)"><path
             d="m 0,0 c 0,-14.407 -11.68,-26.086 -26.086,-26.086 -14.405,0 -26.084,11.679 -26.084,26.086 0,14.405 11.679,26.084 26.084,26.084 C -11.68,26.084 0,14.405 0,0 Z"
             style="fill:none;stroke:#a7a9ac;stroke-width:0.5;stroke-linecap:butt;stroke-linejoin:miter;stroke-miterlimit:4;stroke-dasharray:none;stroke-opacity:1"
             id="path234"
             inkscape:connector-curvature="0" /></g><g
           id="g236"
           transform="translate(117.0459,73.4307)"><path
             d="m 0,0 c -0.944,0 -1.709,-0.764 -1.709,-1.707 0,-0.944 0.765,-1.709 1.709,-1.709 0.943,0 1.709,0.765 1.709,1.709 C 1.709,-0.764 0.943,0 0,0 m 12.303,-3.074 c -0.378,0 -0.685,0.304 -0.685,0.682 0,0.379 0.307,0.685 0.685,0.685 0.377,0 0.683,-0.306 0.683,-0.685 0,-0.378 -0.306,-0.682 -0.683,-0.682 m -2.051,2.05 c -0.377,0 -0.684,0.306 -0.684,0.683 0,0.377 0.307,0.685 0.684,0.685 0.377,0 0.684,-0.308 0.684,-0.685 0,-0.377 -0.307,-0.683 -0.684,-0.683 m 0,-4.101 c -0.377,0 -0.684,0.305 -0.684,0.684 0,0.378 0.307,0.682 0.684,0.682 0.377,0 0.684,-0.304 0.684,-0.682 0,-0.379 -0.307,-0.684 -0.684,-0.684 m -2.094,2.051 c -0.377,0 -0.683,0.304 -0.683,0.682 0,0.379 0.306,0.685 0.683,0.685 0.378,0 0.684,-0.306 0.684,-0.685 0,-0.378 -0.306,-0.682 -0.684,-0.682 M 0,-4.784 c -1.699,0 -3.076,1.378 -3.076,3.077 0,1.697 1.377,3.074 3.076,3.074 1.697,0 3.075,-1.377 3.075,-3.074 0,-1.699 -1.378,-3.077 -3.075,-3.077 m 9.227,8.887 c -0.968,0 -2.848,-1.369 -4.444,-1.369 -1.594,0 -3.588,1.369 -4.442,1.369 -5.866,0 -9.228,-15.778 -4.841,-15.778 3.702,0 4.2,4.613 9.27,4.613 4.101,0 6.507,-4.556 9.242,-4.556 4.384,0 1.082,15.721 -4.785,15.721"
             style="fill:#58595b;fill-opacity:1;fill-rule:evenodd;stroke:none"
             id="path238"
             inkscape:connector-curvature="0" /></g><g
           id="g240"
           transform="translate(218.2676,64.3154)"><path
             d="m 0,0 c 0,-14.407 -11.679,-26.086 -26.085,-26.086 -14.406,0 -26.084,11.679 -26.084,26.086 0,14.405 11.678,26.084 26.084,26.084 C -11.679,26.084 0,14.405 0,0 Z"
             style="fill:none;stroke:#a7a9ac;stroke-width:0.5;stroke-linecap:butt;stroke-linejoin:miter;stroke-miterlimit:4;stroke-dasharray:none;stroke-opacity:1"
             id="path242"
             inkscape:connector-curvature="0" /></g><g
           id="g244"
           transform="translate(192.1982,79.9307)"><path
             d="m 0,0 c 0.611,0 1.107,-0.496 1.107,-1.106 l 0,-5.718 7.378,-4.611 0,-1.983 -7.378,2.491 0,-3.874 1.504,-1.497 0,-1.537 -2.611,0.868 -2.572,-0.872 0.009,1.616 1.411,1.376 0.011,3.92 -7.375,-2.537 0.016,2.029 7.383,4.657 0.011,5.672 C -1.106,-0.496 -0.611,0 0,0"
             style="fill:#58595b;fill-opacity:1;fill-rule:evenodd;stroke:none"
             id="path246"
             inkscape:connector-curvature="0" /></g><g
           id="g248"
           transform="translate(287.7734,64.3154)"><path
             d="m 0,0 c 0,-14.407 -11.679,-26.086 -26.084,-26.086 -14.407,0 -26.085,11.679 -26.085,26.086 0,14.405 11.678,26.084 26.085,26.084 C -11.679,26.084 0,14.405 0,0 Z"
             style="fill:none;stroke:#a7a9ac;stroke-width:0.5;stroke-linecap:butt;stroke-linejoin:miter;stroke-miterlimit:4;stroke-dasharray:none;stroke-opacity:1"
             id="path250"
             inkscape:connector-curvature="0" /></g><g
           id="g252"
           transform="translate(358.333,63.5186)"><path
             d="m 0,0 c 0,-14.407 -11.677,-26.086 -26.083,-26.086 -14.407,0 -26.085,11.679 -26.085,26.086 0,14.405 11.678,26.084 26.085,26.084 C -11.677,26.084 0,14.405 0,0 Z"
             style="fill:none;stroke:#a7a9ac;stroke-width:0.5;stroke-linecap:butt;stroke-linejoin:miter;stroke-miterlimit:4;stroke-dasharray:none;stroke-opacity:1"
             id="path254"
             inkscape:connector-curvature="0" /></g><g
           id="g256"
           transform="translate(427.5576,63.5186)"><path
             d="m 0,0 c 0,-14.407 -11.678,-26.086 -26.086,-26.086 -14.404,0 -26.083,11.679 -26.083,26.086 0,14.405 11.679,26.084 26.083,26.084 C -11.678,26.084 0,14.405 0,0 Z"
             style="fill:none;stroke:#a7a9ac;stroke-width:0.5;stroke-linecap:butt;stroke-linejoin:miter;stroke-miterlimit:4;stroke-dasharray:none;stroke-opacity:1"
             id="path258"
             inkscape:connector-curvature="0" /></g><g
           id="g260"
           transform="translate(497.9326,63.5186)"><path
             d="m 0,0 c 0,-14.407 -11.678,-26.086 -26.083,-26.086 -14.408,0 -26.086,11.679 -26.086,26.086 0,14.405 11.678,26.084 26.086,26.084 C -11.678,26.084 0,14.405 0,0 Z"
             style="fill:none;stroke:#a7a9ac;stroke-width:0.5;stroke-linecap:butt;stroke-linejoin:miter;stroke-miterlimit:4;stroke-dasharray:none;stroke-opacity:1"
             id="path262"
             inkscape:connector-curvature="0" /></g><g
           id="g264"
           transform="translate(567.4375,63.5186)"><path
             d="m 0,0 c 0,-14.407 -11.679,-26.086 -26.085,-26.086 -14.406,0 -26.083,11.679 -26.083,26.086 0,14.405 11.677,26.084 26.083,26.084 C -11.679,26.084 0,14.405 0,0 Z"
             style="fill:none;stroke:#a7a9ac;stroke-width:0.5;stroke-linecap:butt;stroke-linejoin:miter;stroke-miterlimit:4;stroke-dasharray:none;stroke-opacity:1"
             id="path266"
             inkscape:connector-curvature="0" /></g><path
           d="m 406.6,62.013 -0.684,0 0,7.52 0.684,0 0,-7.52 z m -9.57,0 -0.684,0 0,7.52 0.684,0 0,-7.52 z m 10.253,0 0,1.367 -0.016,0 c 0.006,0.114 0.016,0.226 0.016,0.341 l 0,5.811 0,1.709 c 0,3.207 -2.6,5.81 -5.81,5.81 -3.207,0 -5.809,-2.603 -5.809,-5.81 l 0,-1.709 0,-5.811 c 0,-0.115 0.011,-0.227 0.017,-0.341 l -0.017,0 0,-1.367 c 0,0 -3.418,0.057 -3.418,3.759 0,2.101 1.098,3.026 2.052,3.435 l 0,2.034 c 0,3.962 3.212,7.177 7.175,7.177 3.964,0 7.177,-3.215 7.177,-7.177 l 0,-2.034 c 0.952,-0.409 2.051,-1.334 2.051,-3.435 0,-3.702 -3.418,-3.759 -3.418,-3.759"
           style="fill:#58595b;fill-opacity:1;fill-rule:evenodd;stroke:none"
           id="path268"
           inkscape:connector-curvature="0" /><g
           id="g270"
           transform="translate(260.4307,67.9971)"><path
             d="m 0,0 0,-3.036 1.416,0 -1.357,3.058 C 0.04,0.014 0.021,0.008 0,0 m -0.635,-0.046 c -0.027,0.007 -0.051,0.022 -0.076,0.028 l -1.361,-3.018 1.437,0 0,2.99 z m 5.084,7.201 0,-5.756 -3.562,0 C 0.854,0.87 0.621,0.412 0.277,0.151 l 0.36,0 2.545,-5.739 -0.635,0 -0.848,1.914 -1.699,0 0,-3.189 -0.635,0 0,3.189 -1.724,0 -0.862,-1.914 -0.636,0 2.586,5.739 0.241,0 C -1.375,0.412 -1.607,0.87 -1.641,1.399 l -4.121,0 0,5.756 2.235,0 5.743,0 2.233,0 z m -7.976,0 c -1.586,0 -2.873,1.287 -2.873,2.877 0,1.588 1.287,2.878 2.873,2.878 1.585,0 2.871,-1.29 2.871,-2.878 0,-1.59 -1.286,-2.877 -2.871,-2.877 m 5.743,0 c -1.587,0 -2.872,1.287 -2.872,2.877 0,1.588 1.285,2.878 2.872,2.878 1.586,0 2.872,-1.29 2.872,-2.878 0,-1.59 -1.286,-2.877 -2.872,-2.877 m 6.061,-4.476 -3.189,1.278 0,2.558 3.189,1.28 c 0.354,0 0.639,-0.287 0.639,-0.64 l 0,-3.838 C 8.916,2.965 8.631,2.679 8.277,2.679"
             style="fill:#58595b;fill-opacity:1;fill-rule:evenodd;stroke:none"
             id="path272"
             inkscape:connector-curvature="0" /></g><g
           id="g274"
           transform="translate(471.8477,62.998)"><path
             d="M 0,0 -7.605,5.016 -8.618,3.967 0,-1.934 8.618,3.967 7.594,5.038 0,0 Z M 0,3.249 -7.605,8.266 -8.618,7.216 0,1.316 8.618,7.216 7.594,8.287 0,3.249 Z M 8.618,10.467 0,16.366 -8.618,10.467 0,4.566 8.618,10.467 Z"
             style="fill:#58595b;fill-opacity:1;fill-rule:evenodd;stroke:none"
             id="path276"
             inkscape:connector-curvature="0" /></g><g
           id="g278"
           transform="translate(339.8955,71.8447)"><path
             d="m 0,0 c -0.436,0 -0.854,-0.064 -1.255,-0.181 l 1.624,-3.708 c 0.328,-0.053 0.587,-0.327 0.587,-0.673 0,-0.384 -0.311,-0.696 -0.696,-0.696 -0.383,0 -0.695,0.312 -0.695,0.696 0,0.189 0.077,0.357 0.198,0.482 l -1.63,3.673 c -1.563,-0.711 -2.651,-2.282 -2.651,-4.111 0,-2.496 2.023,-4.517 4.518,-4.517 2.494,0 4.518,2.021 4.518,4.517 C 4.518,-2.021 2.494,0 0,0 m -3.432,3.119 0,-0.419 -7.601,0 2.768,-7.409 5.254,6.879 -0.421,0.949 z m -8.133,-0.468 -1.056,-2.698 c 1.521,-0.911 2.542,-2.569 2.542,-4.471 0,-0.045 -0.004,-0.091 -0.006,-0.136 l 1.18,-0.125 -2.66,7.43 z m -2.683,-6.865 3.471,-0.367 c 10e-4,0.02 0.004,0.042 0.004,0.063 0,1.607 -0.841,3.012 -2.104,3.815 l -1.371,-3.511 z M -15.291,0 c -2.496,0 -4.519,-2.021 -4.519,-4.518 0,-2.496 2.023,-4.517 4.519,-4.517 2.269,0 4.142,1.674 4.464,3.853 l -3.618,0.372 c -0.059,-0.324 -0.33,-0.577 -0.673,-0.577 -0.383,0 -0.695,0.311 -0.695,0.695 0,0.383 0.312,0.697 0.695,0.697 0.083,0 0.159,-0.023 0.232,-0.049 l 1.449,3.643 C -14.003,-0.146 -14.63,0 -15.291,0 M 0,-9.731 c -2.879,0 -5.213,2.334 -5.213,5.213 0,2.112 1.258,3.926 3.064,4.746 l -0.691,1.56 0.111,-0.273 -4.746,-6.37 0,-1.279 0.696,0 0,-0.694 -0.696,0 -0.696,0 -0.694,0 0,0.694 0.694,0 0,0.696 -1.965,0.185 c -0.358,-2.53 -2.527,-4.478 -5.155,-4.478 -2.88,0 -5.214,2.334 -5.214,5.213 0,2.879 2.334,5.213 5.214,5.213 0.752,0 1.467,-0.163 2.111,-0.45 l 1.304,3.273 -0.591,1.651 -0.696,0 c -0.651,0 -0.478,0.695 -0.478,0.695 0,0 0.044,0.608 0.522,0.608 0.478,0 0.478,-0.435 1.26,-0.435 0.748,0 1.824,-0.217 1.824,-0.217 0,0 0.477,-0.651 -0.434,-0.651 l -1.304,0 0.494,-1.773 7.554,0 -0.593,1.347 -0.461,0 0,0.695 2.779,0 0,-0.695 -1.57,0 2.034,-4.279 C -1.05,0.613 -0.534,0.695 0,0.695 c 2.879,0 5.213,-2.334 5.213,-5.213 0,-2.879 -2.334,-5.213 -5.213,-5.213"
             style="fill:#58595b;fill-opacity:1;fill-rule:evenodd;stroke:none"
             id="path280"
             inkscape:connector-curvature="0" /></g><g
           id="g282"
           transform="translate(541.9707,68.2939)"><path
             d="m 0,0 -0.556,-0.32 -0.663,1.146 -0.002,0 -0.626,-0.362 0.662,-1.147 -0.556,-0.321 -0.661,1.147 -0.002,-0.001 -0.626,-0.363 0.66,-1.145 -0.555,-0.321 -0.661,1.148 -0.003,-0.002 -1.183,-0.685 -0.342,0.592 1.184,0.684 0.003,0.002 -0.693,1.199 0.556,0.319 0.691,-1.197 0.627,0.36 0.002,0.002 -0.692,1.2 0.555,0.319 0.693,-1.198 0.626,0.361 0.001,0.002 -0.691,1.199 0.556,0.32 0.691,-1.199 0.626,0.362 0.003,0.002 -0.692,1.198 0.553,0.321 L 0.18,2.424 0.805,2.784 0.808,2.786 0.117,3.984 0.671,4.305 1.363,3.106 1.991,3.47 1.299,4.668 1.855,4.988 2.546,3.791 3.782,4.502 4.123,3.91 2.889,3.197 3.55,2.05 2.995,1.73 2.334,2.877 1.705,2.515 2.367,1.368 1.812,1.047 1.15,2.192 1.146,2.191 0.521,1.83 1.184,0.685 0.628,0.363 -0.034,1.509 -0.037,1.509 -0.663,1.146 0,0 Z M 8.782,2.644 C 9.341,4.275 9.313,5.873 8.555,7.187 7.795,8.502 6.424,9.324 4.732,9.658 L 8.782,2.644 Z M 2.224,9.802 C 0.24,9.672 -1.946,9.018 -4.039,7.811 -6.168,6.579 -7.85,4.979 -8.954,3.295 l 5.382,-9.323 c 2.011,0.114 4.238,0.769 6.369,2 2.093,1.208 3.751,2.774 4.855,4.426 L 2.224,9.802 Z M -10.045,1.079 c -0.536,-1.611 -0.5,-3.187 0.25,-4.485 0.749,-1.299 2.097,-2.117 3.759,-2.458 l -4.009,6.943 z M 3.483,-5.183 c -5.719,-3.302 -12.194,-2.799 -14.459,1.123 -2.265,3.924 0.537,9.781 6.257,13.084 C 1.002,12.327 7.477,11.825 9.742,7.901 12.007,3.979 9.206,-1.88 3.483,-5.183"
             style="fill:#58595b;fill-opacity:1;fill-rule:evenodd;stroke:none"
             id="path284"
             inkscape:connector-curvature="0" /></g><g
           id="g286"
           transform="translate(42.7646,705.9028)"><path
             d="m 0,0 1.496,-4.114 0.898,0 0,0.922 L 0,0 Z m -2.943,0.948 -2.144,-6.833 3.241,-2.693 2.993,2.693 -2.095,6.833 -1.995,0 z m 1.956,0.566 0.637,3.025 -3.241,0 0.662,-3.025 1.942,0 z"
             style="fill:#58595b;fill-opacity:1;fill-rule:evenodd;stroke:none"
             id="path288"
             inkscape:connector-curvature="0" /></g></g></g><text
       transform="matrix(1,0,0,-1,323.5459,701.7344)"
       style="font-variant:normal;font-weight:normal;font-stretch:normal;font-size:14px;font-family:'Bebas Neue';-inkscape-font-specification:BebasNeue;writing-mode:lr-tb;fill:#414142;fill-opacity:1;fill-rule:nonzero;stroke:none"
       id="text290"><tspan
         x="0 7.112 13.664 20.299999 24.360001 31.219999 38.598 42.167999 48.804001 56 60.060001 66.206001 72.351997"
         y="0"
         sodipodi:role="line"
         id="tspan292">design skill.</tspan><tspan
         x="0 6.678 13.23 20.257999 26.893999 33.838001 41.216 48.313999 54.459999 58.029999 64.666 71.862 75.921997 82.068001 88.213997"
         y="185.892"
         sodipodi:role="line"
         id="tspan294">personal skill.</tspan></text>
<g
       id="g296"
       style="fill:none"><g
         id="g298"
         clip-path="url(#clipPath300)"
         style="fill:none"><g
           id="g304"
           transform="translate(297.1377,168.751)"
           style="fill:none"><path
             d="M 0,0 0,562.276"
             style="fill:none;stroke:#58595b;stroke-width:0.5;stroke-linecap:butt;stroke-linejoin:miter;stroke-miterlimit:10;stroke-dasharray:none;stroke-opacity:1"
             id="path306"
             inkscape:connector-curvature="0" /></g><g
           id="g308"
           transform="translate(299.4121,705.7178)"
           style="fill:none"><path
             d="m 0,0 c 0,-1.256 -1.019,-2.274 -2.273,-2.274 -1.256,0 -2.275,1.018 -2.275,2.274 0,1.255 1.019,2.273 2.275,2.273 C -1.019,2.273 0,1.255 0,0"
             style="fill:none;fill-opacity:1;fill-rule:nonzero;stroke:none"
             id="path310"
             inkscape:connector-curvature="0" /></g><g
           id="g312"
           transform="translate(299.4121,705.7178)"
           style="fill:none"><path
             d="m 0,0 c 0,-1.256 -1.019,-2.274 -2.273,-2.274 -1.256,0 -2.275,1.018 -2.275,2.274 0,1.255 1.019,2.273 2.275,2.273 C -1.019,2.273 0,1.255 0,0 Z"
             style="fill:none;stroke:#ffffff;stroke-width:0.5;stroke-linecap:butt;stroke-linejoin:miter;stroke-miterlimit:10;stroke-dasharray:none;stroke-opacity:1"
             id="path314"
             inkscape:connector-curvature="0" /></g><g
           id="g316"
           transform="translate(299.4121,520.4609)"
           style="fill:none"><path
             d="m 0,0 c 0,-1.256 -1.019,-2.274 -2.273,-2.274 -1.256,0 -2.275,1.018 -2.275,2.274 0,1.255 1.019,2.273 2.275,2.273 C -1.019,2.273 0,1.255 0,0"
             style="fill:none;fill-opacity:1;fill-rule:nonzero;stroke:none"
             id="path318"
             inkscape:connector-curvature="0" /></g><g
           id="g320"
           transform="translate(299.4121,520.4609)"
           style="fill:none"><path
             d="m 0,0 c 0,-1.256 -1.019,-2.274 -2.273,-2.274 -1.256,0 -2.275,1.018 -2.275,2.274 0,1.255 1.019,2.273 2.275,2.273 C -1.019,2.273 0,1.255 0,0 Z"
             style="fill:none;stroke:#ffffff;stroke-width:0.5;stroke-linecap:butt;stroke-linejoin:miter;stroke-miterlimit:10;stroke-dasharray:none;stroke-opacity:1"
             id="path322"
             inkscape:connector-curvature="0" /></g><g
           id="g324"
           transform="translate(299.4121,335.5937)"
           style="fill:none"><path
             d="m 0,0 c 0,-1.256 -1.019,-2.273 -2.273,-2.273 -1.256,0 -2.275,1.017 -2.275,2.273 0,1.256 1.019,2.273 2.275,2.273 C -1.019,2.273 0,1.256 0,0"
             style="fill:none;fill-opacity:1;fill-rule:nonzero;stroke:none"
             id="path326"
             inkscape:connector-curvature="0" /></g><g
           id="g328"
           transform="translate(299.4121,335.5937)"
           style="fill:none"><path
             d="m 0,0 c 0,-1.256 -1.019,-2.273 -2.273,-2.273 -1.256,0 -2.275,1.017 -2.275,2.273 0,1.256 1.019,2.273 2.275,2.273 C -1.019,2.273 0,1.256 0,0 Z"
             style="fill:none;stroke:#ffffff;stroke-width:0.5;stroke-linecap:butt;stroke-linejoin:miter;stroke-miterlimit:10;stroke-dasharray:none;stroke-opacity:1"
             id="path330"
             inkscape:connector-curvature="0" /></g><g
           id="g332"
           transform="translate(287.8125,520.4609)"
           style="fill:none"><path
             d="m 0,0 c 0,-7.214 -5.849,-13.062 -13.063,-13.062 -7.212,0 -13.061,5.848 -13.061,13.062 0,7.213 5.849,13.062 13.061,13.062 C -5.849,13.062 0,7.213 0,0 Z"
             style="fill:none;stroke:#58595b;stroke-width:0.5;stroke-linecap:butt;stroke-linejoin:miter;stroke-miterlimit:4;stroke-dasharray:none;stroke-opacity:1"
             id="path334"
             inkscape:connector-curvature="0" /></g><g
           id="g336"
           transform="translate(288.9492,520.4609)"
           style="fill:none"><path
             d="M 0,0 5.282,0"
             style="fill:none;stroke:#58595b;stroke-width:0.5;stroke-linecap:butt;stroke-linejoin:miter;stroke-miterlimit:4;stroke-dasharray:none;stroke-opacity:1"
             id="path338"
             inkscape:connector-curvature="0" /></g><g
           id="g340"
           transform="translate(287.8125,704.9043)"
           style="fill:none"><path
             d="m 0,0 c 0,-7.214 -5.849,-13.062 -13.063,-13.062 -7.212,0 -13.061,5.848 -13.061,13.062 0,7.213 5.849,13.062 13.061,13.062 C -5.849,13.062 0,7.213 0,0 Z"
             style="fill:none;stroke:#58595b;stroke-width:0.5;stroke-linecap:butt;stroke-linejoin:miter;stroke-miterlimit:4;stroke-dasharray:none;stroke-opacity:1"
             id="path342"
             inkscape:connector-curvature="0" /></g><g
           id="g344"
           transform="translate(288.9492,705.4438)"
           style="fill:none"><path
             d="M 0,0 5.282,0"
             style="fill:none;stroke:#58595b;stroke-width:0.5;stroke-linecap:butt;stroke-linejoin:miter;stroke-miterlimit:4;stroke-dasharray:none;stroke-opacity:1"
             id="path346"
             inkscape:connector-curvature="0" /></g><g
           id="g348"
           transform="translate(28.356,109.2227)"
           style="fill:none"><path
             d="M 0,0 537.928,0"
             style="fill:none;stroke:#58595b;stroke-width:0.5;stroke-linecap:butt;stroke-linejoin:miter;stroke-miterlimit:10;stroke-dasharray:none;stroke-opacity:1"
             id="path350"
             inkscape:connector-curvature="0" /></g><g
           id="g352"
           transform="translate(299.5937,109.2227)"
           style="fill:none"><path
             d="m 0,0 c 0,-1.256 -1.018,-2.273 -2.273,-2.273 -1.256,0 -2.274,1.017 -2.274,2.273 0,1.256 1.018,2.273 2.274,2.273 C -1.018,2.273 0,1.256 0,0"
             style="fill:none;fill-opacity:1;fill-rule:nonzero;stroke:none"
             id="path354"
             inkscape:connector-curvature="0" /></g><g
           id="g356"
           transform="translate(299.5937,109.2227)"
           style="fill:none"><path
             d="m 0,0 c 0,-1.256 -1.018,-2.273 -2.273,-2.273 -1.256,0 -2.274,1.017 -2.274,2.273 0,1.256 1.018,2.273 2.274,2.273 C -1.018,2.273 0,1.256 0,0 Z"
             style="fill:none;stroke:#ffffff;stroke-width:0.5;stroke-linecap:butt;stroke-linejoin:miter;stroke-miterlimit:10;stroke-dasharray:none;stroke-opacity:1"
             id="path358"
             inkscape:connector-curvature="0" /></g><g
           id="g360"
           transform="translate(28.356,147.8662)"
           style="fill:none"><path
             d="M 0,0 537.928,0"
             style="fill:none;stroke:#58595b;stroke-width:0.5;stroke-linecap:butt;stroke-linejoin:miter;stroke-miterlimit:10;stroke-dasharray:none;stroke-opacity:1"
             id="path362"
             inkscape:connector-curvature="0" /></g><g
           id="g364"
           transform="translate(299.5937,147.8662)"
           style="fill:none"><path
             d="m 0,0 c 0,-1.256 -1.018,-2.273 -2.273,-2.273 -1.256,0 -2.274,1.017 -2.274,2.273 0,1.256 1.018,2.273 2.274,2.273 C -1.018,2.273 0,1.256 0,0"
             style="fill:none;fill-opacity:1;fill-rule:nonzero;stroke:none"
             id="path366"
             inkscape:connector-curvature="0" /></g><g
           id="g368"
           transform="translate(299.5937,147.8662)"
           style="fill:none"><path
             d="m 0,0 c 0,-1.256 -1.018,-2.273 -2.273,-2.273 -1.256,0 -2.274,1.017 -2.274,2.273 0,1.256 1.018,2.273 2.274,2.273 C -1.018,2.273 0,1.256 0,0 Z"
             style="fill:none;stroke:#ffffff;stroke-width:0.5;stroke-linecap:butt;stroke-linejoin:miter;stroke-miterlimit:10;stroke-dasharray:none;stroke-opacity:1"
             id="path370"
             inkscape:connector-curvature="0" /></g><g
           id="g372"
           transform="translate(28.356,760.8896)"
           style="fill:none"><path
             d="M 0,0 537.928,0"
             style="fill:none;stroke:#58595b;stroke-width:0.5;stroke-linecap:butt;stroke-linejoin:miter;stroke-miterlimit:10;stroke-dasharray:none;stroke-opacity:1"
             id="path374"
             inkscape:connector-curvature="0" /></g><g
           id="g376"
           transform="translate(299.5937,760.8896)"
           style="fill:none"><path
             d="m 0,0 c 0,-1.256 -1.018,-2.273 -2.273,-2.273 -1.256,0 -2.274,1.017 -2.274,2.273 0,1.256 1.018,2.273 2.274,2.273 C -1.018,2.273 0,1.256 0,0"
             style="fill:none;fill-opacity:1;fill-rule:nonzero;stroke:none"
             id="path378"
             inkscape:connector-curvature="0" /></g><g
           id="g380"
           transform="translate(299.5937,760.8896)"
           style="fill:none"><path
             d="m 0,0 c 0,-1.256 -1.018,-2.273 -2.273,-2.273 -1.256,0 -2.274,1.017 -2.274,2.273 0,1.256 1.018,2.273 2.274,2.273 C -1.018,2.273 0,1.256 0,0 Z"
             style="fill:none;stroke:#ffffff;stroke-width:0.5;stroke-linecap:butt;stroke-linejoin:miter;stroke-miterlimit:10;stroke-dasharray:none;stroke-opacity:1"
             id="path382"
             inkscape:connector-curvature="0" /></g></g></g><text
       transform="scale(1,-1)"
       style="font-variant:normal;font-weight:300;font-stretch:normal;font-size:7px;font-family:'Source Sans Pro Light';-inkscape-font-specification:SourceSansPro-Light;writing-mode:lr-tb;fill:#58595b;fill-opacity:1;fill-rule:nonzero;stroke:none"
       id="text384"
       x="323.54489"
       y="-651.17914"><tspan
         x="323.54489"
         y="-651.17914"
         sodipodi:role="line"
         id="tspan386">Java|C++</tspan><tspan
         x="323.54489"
         y="-642.42914"
         sodipodi:role="line"
         id="tspan4756">Android </tspan><tspan
         sodipodi:role="line"
         id="tspan392"
         x="323.54489"
         y="-633.67914">HTML &amp; CSS</tspan><tspan
         sodipodi:role="line"
         x="323.54489"
         y="-624.92914"
         id="tspan4760">javaScript &amp;jquery</tspan><tspan
         sodipodi:role="line"
         x="323.54489"
         y="-616.17914"
         id="tspan4766">Sqlite</tspan><tspan
         sodipodi:role="line"
         id="tspan394"
         x="323.54489"
         y="-607.42914" /><tspan
         x="323.54489"
         y="-598.67914"
         sodipodi:role="line"
         id="tspan398" /></text>
<g
       id="g400"
       transform="translate(0,-29.430478)"><g
         id="g402"
         clip-path="url(#clipPath404)"><path
           d="m 529.333,680.39 -115.958,0 0,2 115.958,0 0,-2 z"
           style="fill:#58595b;fill-opacity:1;fill-rule:nonzero;stroke:none"
           id="path408"
           inkscape:connector-curvature="0" /><path
           d="m 529.333,671.265 -115.958,0 0,2 115.958,0 0,-2 z"
           style="fill:#58595b;fill-opacity:1;fill-rule:nonzero;stroke:none"
           id="path410"
           inkscape:connector-curvature="0" /><path
           d="m 529.333,662.515 -115.958,0 0,2 115.958,0 0,-2 z"
           style="fill:#58595b;fill-opacity:1;fill-rule:nonzero;stroke:none"
           id="path412"
           inkscape:connector-curvature="0" /><path
           d="m 529.333,653.765 -115.958,0 0,2 115.958,0 0,-2 z"
           style="fill:#58595b;fill-opacity:1;fill-rule:nonzero;stroke:none"
           id="path414"
           inkscape:connector-curvature="0" /><path
           d="m 529.333,645.015 -115.958,0 0,2 115.958,0 0,-2 z"
           style="fill:#58595b;fill-opacity:1;fill-rule:nonzero;stroke:none"
           id="path416"
           inkscape:connector-curvature="0" /><path
           d="m 529.333,636.265 -115.958,0 0,2 115.958,0 0,-2 z"
           style="opacity:0;fill:#58595b;fill-opacity:1;fill-rule:nonzero;stroke:none"
           id="path418"
           inkscape:connector-curvature="0" /><path
           d="m 505.90013,680.39 -92.52513,0 0,2 92.52513,0 0,-2 z"
           style="fill:#aca7ab;fill-opacity:1;fill-rule:nonzero;stroke:none"
           id="path422"
           inkscape:connector-curvature="0" /><path
           d="m 512.90634,671.265 -99.53134,0 0,2 99.53134,0 0,-2 z"
           style="fill:#a7a9ac;fill-opacity:1;fill-rule:nonzero;stroke:none"
           id="path424"
           inkscape:connector-curvature="0" /><path
           d="m 505.555,662.515 -92.18,0 0,2 92.18,0 0,-2 z"
           style="fill:#a7a9ac;fill-opacity:1;fill-rule:nonzero;stroke:none"
           id="path426"
           inkscape:connector-curvature="0" /><path
           d="m 495.6536,653.765 -82.2786,0 0,2 82.2786,0 0,-2 z"
           style="fill:#a7a9ac;fill-opacity:1;fill-rule:nonzero;stroke:none"
           id="path428"
           inkscape:connector-curvature="0" /><path
           d="m 478.242,645.015 -64.867,0 0,2 64.867,0 0,-2 z"
           style="fill:#a7a9ac;fill-opacity:1;fill-rule:nonzero;stroke:none"
           id="path430"
           inkscape:connector-curvature="0" /></g></g><text
       transform="matrix(1,0,0,-1,323.5449,596.9541)"
       style="font-variant:normal;font-weight:300;font-stretch:normal;font-size:7px;font-family:'Source Sans Pro Light';-inkscape-font-specification:SourceSansPro-Light;writing-mode:lr-tb;fill:#58595b;fill-opacity:1;fill-rule:nonzero;stroke:none;opacity:0;"
       id="text436"><tspan
         x="0 4.2350001 6.454 8.0570002 11.865 13.258 17.283001 18.676001 21.945 25.438 28.49 32.235001 35.938 38.262001"
         y="0"
         sodipodi:role="line"
         id="tspan438">Grid &amp; Layout.</tspan><tspan
         x="0 4.2350001 7.98 11.725 15.533 16.926001 19.761 23.142 26.865999 29.701 33.082001 34.474998 36.245998 39.991001 42.209999 43.603001 45.786999 48.839001 52.646999 56.391998 59.800999 61.859001 65.351997 69.160004 72.856003 75.767303"
         y="9.0019999"
         sodipodi:role="line"
         id="tspan440">Good sense for typography.</tspan><tspan
         x="0 3.948 7.6929998 9.3520002 13.097 15.316 16.709 18.893 22.589001 25.969999 29.715 32.122299 35.174301 36.567299 39.8153 43.539299 47.284302 52.0793 53.7383 57.119301 60.927299 64.2593 67.640297"
         y="18.004"
         sodipodi:role="line"
         id="tspan442">Color theory knowledge.</tspan><tspan
         x="0 5.3899999 8.7709999 12.579 13.972 17.674999 20.51 24.003 27.811001 29.414 31.073 32.675999 34.860001 37.771999"
         y="27.006001"
         sodipodi:role="line"
         id="tspan444">Web usability.</tspan><tspan
         x="0 1.6799999 5.4039998 7.5180001 10.899 13.118 14.819 18.312 21.336 24.716999 26.110001 29.917999 33.299 36.133999 37.737 41.146 44.869999"
         y="36.007999"
         sodipodi:role="line"
         id="tspan446">Interface design.</tspan></text>
<g
       id="g448"><g
         id="g450"
         clip-path="url(#clipPath452)"><g
           id="g476"
           transform="translate(273.7969,709.9814)"><path
             d="M 0,0 C 0.209,0 0.378,0.17 0.378,0.379 0.378,0.587 0.209,0.757 0,0.757 -0.209,0.757 -0.378,0.587 -0.378,0.379 -0.378,0.17 -0.209,0 0,0 m 1.514,0.946 c 0.313,0 0.567,0.254 0.567,0.568 0,0.313 -0.254,0.567 -0.567,0.567 C 1.2,2.081 0.946,1.827 0.946,1.514 0.946,1.2 1.2,0.946 1.514,0.946 M 1.135,0 c 0,-0.209 0.17,-0.378 0.379,-0.378 0.209,0 0.378,0.169 0.378,0.378 0,0.209 -0.169,0.379 -0.378,0.379 C 1.305,0.379 1.135,0.209 1.135,0 m 3.054,-10.777 -6.472,0.007 c -0.404,0.108 -0.642,0.522 -0.534,0.926 l 2.628,5.151 0.008,3.37 -0.567,0 c -0.104,0 -0.189,0.084 -0.189,0.189 0,0.104 0.085,0.189 0.189,0.189 l 0.567,0 1.891,0 0.566,0 c 0.105,0 0.189,-0.085 0.189,-0.189 0,-0.105 -0.084,-0.189 -0.189,-0.189 l -0.566,0 0.01,-3.358 3.003,-5.171 c 0.109,-0.403 -0.131,-0.817 -0.534,-0.925 m 0.903,1.009 -3.018,5.081 0,0.009 -0.006,2.977 0.208,0 c 0.314,0 0.567,0.254 0.567,0.567 0,0.313 -0.253,0.567 -0.567,0.567 l -3.024,0 c -0.313,0 -0.566,-0.254 -0.566,-0.567 0,-0.313 0.253,-0.567 0.566,-0.567 l 0.183,0 -0.006,-2.978 -2.615,-5.089 c -0.162,-0.605 0.198,-1.226 0.802,-1.388 l 6.675,0 c 0.605,0.162 0.963,0.783 0.801,1.388 m -2.878,3.515 c 0,0 -0.63,-0.804 -1.433,0 -0.781,0.756 -1.348,0 -1.348,0 l -1.879,-3.704 c -0.054,-0.202 0.066,-0.409 0.267,-0.463 l 6.241,0 c 0.202,0.054 0.321,0.261 0.267,0.463 l -2.115,3.704 z"
             style="fill:#58595b;fill-opacity:1;fill-rule:evenodd;stroke:none"
             id="path478"
             inkscape:connector-curvature="0" /></g></g></g><text
       transform="matrix(1,0,0,-1,323.5444,306.3604)"
       style="font-variant:normal;font-weight:300;font-stretch:normal;font-size:7px;font-family:'Source Sans Pro Light';-inkscape-font-specification:SourceSansPro-Light;writing-mode:lr-tb;fill:#414142;fill-opacity:1;fill-rule:nonzero;stroke:none"
       id="text480"><tspan
         sodipodi:role="line"
         id="tspan482"
         x="0"
         y="0" /></text>
<text
       transform="matrix(1,0,0,-1,323.5444,294.3604)"
       style="font-variant:normal;font-weight:bold;font-stretch:normal;font-size:10px;font-family:'Source Sans Pro';-inkscape-font-specification:SourceSansPro-Bold;writing-mode:lr-tb;fill:#414142;fill-opacity:1;fill-rule:nonzero;stroke:none"
       id="text484"><tspan
         sodipodi:role="line"
         id="tspan486"
         x="0"
         y="0" /></text>
<text
       transform="matrix(1,0,0,-1,323.5444,285.9604)"
       style="font-variant:normal;font-weight:300;font-stretch:normal;font-size:7px;font-family:'Source Sans Pro Light';-inkscape-font-specification:SourceSansPro-Light;writing-mode:lr-tb;fill:#414142;fill-opacity:1;fill-rule:nonzero;stroke:none"
       id="text488"><tspan
         sodipodi:role="line"
         id="tspan498"
         x="0"
         y="0" /></text>
<text
       transform="matrix(1,0,0,-1,323.5444,206.8599)"
       style="font-variant:normal;font-weight:bold;font-stretch:normal;font-size:10px;font-family:'Source Sans Pro';-inkscape-font-specification:SourceSansPro-Bold;writing-mode:lr-tb;fill:#414142;fill-opacity:1;fill-rule:nonzero;stroke:none"
       id="text500"><tspan
         sodipodi:role="line"
         id="tspan502"
         x="0"
         y="0" /></text>
<text
       transform="matrix(1,0,0,-1,323.5444,198.46)"
       style="font-variant:normal;font-weight:300;font-stretch:normal;font-size:7px;font-family:'Source Sans Pro Light';-inkscape-font-specification:SourceSansPro-Light;writing-mode:lr-tb;fill:#414142;fill-opacity:1;fill-rule:nonzero;stroke:none"
       id="text504"><tspan
         x="0"
         y="0"
         sodipodi:role="line"
         id="tspan510" /></text>
<text
       transform="matrix(1,0,0,-1,369.4058,487.8633)"
       style="font-variant:normal;font-weight:bold;font-stretch:normal;font-size:8px;font-family:'Source Sans Pro';-inkscape-font-specification:SourceSansPro-Bold;writing-mode:lr-tb;fill:#414142;fill-opacity:1;fill-rule:nonzero;stroke:none"
       id="text532"><tspan
         x="0 4.6799998 8.8240004 11.928 15.472 19.912001 24.488001 28.76 31.048 33.256001 36.32"
         y="0"
         sodipodi:role="line"
         id="tspan534">Personality</tspan></text>
<text
       transform="matrix(1,0,0,-1,369.4058,479.4634)"
       style="font-variant:normal;font-weight:300;font-stretch:normal;font-size:7px;font-family:'Source Sans Pro Light';-inkscape-font-specification:SourceSansPro-Light;writing-mode:lr-tb;fill:#414142;fill-opacity:1;fill-rule:nonzero;stroke:none"
       id="text536"><tspan
         x="0 3.1919999 6.4679999 9.9610004 13.769 17.15 19.299 22.134001 25.83 27.433001 31.1703 32.7033 34.096298 35.699299 39.423302 43.147301 46.8923 49.790298 53.283298 55.4673 57.070301 60.8153 64.539299 66.072304 67.465302 70.608299 72.757301 76.033302 79.526299 81.710297 83.313301 86.351303"
         y="0"
         sodipodi:role="line"
         id="tspan538">Leadership, innovation, creative</tspan></text>
<text
       transform="matrix(1,0,0,-1,331.8677,480.7803)"
       style="font-variant:normal;font-weight:bold;font-stretch:normal;font-size:6px;font-family:'Source Sans Pro';-inkscape-font-specification:SourceSansPro-Bold;writing-mode:lr-tb;fill:#414142;fill-opacity:1;fill-rule:nonzero;stroke:none"
       id="text540"><tspan
         x="0 3.168 6.336 7.5840001"
         y="0"
         sodipodi:role="line"
         id="tspan542">57 %</tspan><tspan
         x="0 3.168 6.336 7.5840001"
         y="32.748001"
         sodipodi:role="line"
         id="tspan544">57 %</tspan><tspan
         x="0 3.168 6.336 7.5840001"
         y="66.246002"
         sodipodi:role="line"
         id="tspan546">57 %</tspan><tspan
         x="0 3.168 6.336 7.5840001"
         y="99.744003"
         sodipodi:role="line"
         id="tspan548">57 %</tspan></text>
<text
       transform="matrix(1,0,0,-1,369.0728,456.1377)"
       style="font-variant:normal;font-weight:bold;font-stretch:normal;font-size:8px;font-family:'Source Sans Pro';-inkscape-font-specification:SourceSansPro-Bold;writing-mode:lr-tb;fill:#414142;fill-opacity:1;fill-rule:nonzero;stroke:none"
       id="text550"><tspan
         x="0 5.4720001 8.5760002 12.696 16.968 21.544001 23.752001 27.32 31.591999 34.655998 36.863998 41.304001"
         y="0"
         sodipodi:role="line"
         id="tspan552">Organization</tspan></text>
<text
       transform="matrix(1,0,0,-1,369.0728,447.7378)"
       style="font-variant:normal;font-weight:300;font-stretch:normal;font-size:7px;font-family:'Source Sans Pro Light';-inkscape-font-specification:SourceSansPro-Light;writing-mode:lr-tb;fill:#414142;fill-opacity:1;fill-rule:nonzero;stroke:none"
       id="text554"><tspan
         x="0 3.1919999 6.4679999 9.9610004 13.769 17.15 19.299 22.134001 25.83 27.433001 31.1703 32.7033 34.096298 36.2103 39.486301 42.979301 48.6633 50.056301 53.8643 55.5233 59.0163 62.068298 65.449303 67.395302 68.928299 70.321297 73.702301 76.5513 80.359299 83.740303 85.959297 87.562302 90.943298 94.667297 97.691299 101.0723 102.6053"
         y="0"
         sodipodi:role="line"
         id="tspan556">Leadership, team player, experience, </tspan><tspan
         x="0 3.6470001 5.8309999 7.8882999 11.3813 13.4953 16.805599 20.2146 23.1266 24.659599 26.052601 29.075899 32.8209 38.504902 44.1889 47.891899 51.615898 53.218899 56.291901 59.784901 61.968899 63.571899 67.316902 71.040901"
         y="8.3999996"
         sodipodi:role="line"
         id="tspan558">Strategy, communication.</tspan></text>
<text
       transform="matrix(1,0,0,-1,369.0728,419.415)"
       style="font-variant:normal;font-weight:bold;font-stretch:normal;font-size:8px;font-family:'Source Sans Pro';-inkscape-font-specification:SourceSansPro-Bold;writing-mode:lr-tb;fill:#414142;fill-opacity:1;fill-rule:nonzero;stroke:none"
       id="text560"><tspan
         x="0 4.448 8.8879995 12.624 14.832 19.104"
         y="0"
         sodipodi:role="line"
         id="tspan562">Social</tspan></text>
<text
       transform="matrix(1,0,0,-1,369.0728,411.0151)"
       style="font-variant:normal;font-weight:300;font-stretch:normal;font-size:7px;font-family:'Source Sans Pro Light';-inkscape-font-specification:SourceSansPro-Light;writing-mode:lr-tb;fill:#414142;fill-opacity:1;fill-rule:nonzero;stroke:none"
       id="text564"><tspan
         x="0 3.1919999 6.4679999 9.9610004 13.769 17.15 19.299 22.134001 25.83 27.433001 31.1703 32.7033 34.096298 37.1203 40.865299 46.549301 52.233299 55.936298 59.660301 61.263302 63.4473 66.358597 67.891602 69.284599 72.980598 76.725601 80.4496 83.830597 86.665604 88.849602"
         y="0"
         sodipodi:role="line"
         id="tspan566">Leadership, community, honesty</tspan></text>
<text
       transform="matrix(1,0,0,-1,369.0728,385.2725)"
       style="font-variant:normal;font-weight:bold;font-stretch:normal;font-size:8px;font-family:'Source Sans Pro';-inkscape-font-specification:SourceSansPro-Bold;writing-mode:lr-tb;fill:#414142;fill-opacity:1;fill-rule:nonzero;stroke:none"
       id="text568"><tspan
         x="0 4.1440001 8.4160004 12.992 17.264 21.808001 26.08 30.208"
         y="0"
         sodipodi:role="line"
         id="tspan570">Language</tspan></text>
<text
       transform="matrix(1,0,0,-1,369.0728,376.8726)"
       style="font-variant:normal;font-weight:300;font-stretch:normal;font-size:7px;font-family:'Source Sans Pro Light';-inkscape-font-specification:SourceSansPro-Light;writing-mode:lr-tb;fill:#414142;fill-opacity:1;fill-rule:nonzero;stroke:none"
       id="text572"><tspan
         x="0 3.605 7.329 10.738 12.397 14 16.834999 20.531 22.063999"
         y="0"
         sodipodi:role="line"
         id="tspan574">English, Punjabi,Hindi</tspan></text>
<g
       id="g576"><g
         id="g578"
         clip-path="url(#clipPath580)"><g
           id="g584"
           transform="translate(338.0244,497.1445)"><path
             d="m 0,0 0,-4.199 c 5.669,0 10.28,-4.613 10.28,-10.28 0,-2.834 -1.152,-5.404 -3.014,-7.266 l 2.968,-2.969 c 2.622,2.622 4.246,6.242 4.246,10.235 C 14.48,-6.495 7.985,0 0,0"
             style="fill:#58595b;fill-opacity:1;fill-rule:nonzero;stroke:none"
             id="path586"
             inkscape:connector-curvature="0" /></g><g
           id="g588"
           transform="translate(338.0244,472.3848)"><path
             d="m 0,0 c -5.668,0 -10.279,4.611 -10.279,10.28 0,5.668 4.611,10.281 10.279,10.281 l 0,4.199 c -7.983,0 -14.479,-6.495 -14.479,-14.48 0,-7.984 6.496,-14.48 14.479,-14.48 3.992,0 7.613,1.624 10.234,4.246 L 7.266,3.015 C 5.405,1.153 2.835,0 0,0"
             style="fill:#d1d3d4;fill-opacity:1;fill-rule:nonzero;stroke:none"
             id="path590"
             inkscape:connector-curvature="0" /></g><g
           id="g592"
           transform="translate(352.5078,416.8008)"><path
             d="m 0,0 c 0,7.984 -6.496,14.48 -14.48,14.48 l 0,-4.2 c 5.667,0 10.279,-4.612 10.279,-10.28 0,-5.668 -4.612,-10.28 -10.279,-10.28 l 0,-4.199 C -6.496,-14.479 0,-7.984 0,0"
             style="fill:#58595b;fill-opacity:1;fill-rule:nonzero;stroke:none"
             id="path594"
             inkscape:connector-curvature="0" /></g><g
           id="g596"
           transform="translate(338.0273,406.5205)"><path
             d="m 0,0 c -5.668,0 -10.28,4.612 -10.28,10.28 0,5.668 4.612,10.281 10.28,10.281 l 0,4.2 c -7.984,0 -14.48,-6.496 -14.48,-14.481 0,-7.984 6.496,-14.479 14.48,-14.479 L 0,0 Z"
             style="fill:#d1d3d4;fill-opacity:1;fill-rule:nonzero;stroke:none"
             id="path598"
             inkscape:connector-curvature="0" /></g><g
           id="g600"
           transform="translate(338.0244,464.3164)"><path
             d="m 0,0 0,-4.2 c 5.668,0 10.28,-4.613 10.28,-10.28 0,-5.668 -4.612,-10.281 -10.28,-10.281 -2.834,0 -5.404,1.154 -7.266,3.014 l -2.967,-2.968 c 2.621,-2.622 6.241,-4.246 10.233,-4.246 7.984,0 14.48,6.496 14.48,14.481 C 14.48,-6.496 7.984,0 0,0"
             style="fill:#58595b;fill-opacity:1;fill-rule:nonzero;stroke:none"
             id="path602"
             inkscape:connector-curvature="0" /></g><g
           id="g604"
           transform="translate(327.7451,449.8359)"><path
             d="m 0,0 c 0,5.668 4.611,10.28 10.279,10.28 l 0,4.2 C 2.295,14.48 -4.2,7.984 -4.2,0 c 0,-3.993 1.624,-7.611 4.246,-10.234 l 2.968,2.967 C 1.152,-5.405 0,-2.834 0,0"
             style="fill:#d1d3d4;fill-opacity:1;fill-rule:nonzero;stroke:none"
             id="path606"
             inkscape:connector-curvature="0" /></g><g
           id="g608"
           transform="translate(338.2881,393.252)"><path
             d="m 0,0 0,4.201 c -7.983,0 -14.479,-6.496 -14.479,-14.481 l 4.201,0 C -10.278,-4.612 -5.667,0 0,0"
             style="fill:#d1d3d4;fill-opacity:1;fill-rule:nonzero;stroke:none"
             id="path610"
             inkscape:connector-curvature="0" /></g><g
           id="g612"
           transform="translate(338.2881,397.4531)"><path
             d="m 0,0 0,-4.201 c 5.669,0 10.28,-4.612 10.28,-10.28 0,-5.668 -4.611,-10.28 -10.28,-10.28 -5.667,0 -10.278,4.612 -10.278,10.28 l -4.201,0 c 0,-7.985 6.496,-14.48 14.479,-14.48 7.985,0 14.481,6.495 14.481,14.48 C 14.481,-6.496 7.985,0 0,0"
             style="fill:#58595b;fill-opacity:1;fill-rule:nonzero;stroke:none"
             id="path614"
             inkscape:connector-curvature="0" /></g><g
           id="g616"
           transform="translate(273.1938,526.6074)"><path
             d="m 0,0 c 0,1.147 0.706,1.396 1.418,1.396 0.713,0 1.398,-0.243 1.398,-1.391 0,-1.148 -1.397,-3.058 -1.397,-3.058 C 1.419,-3.053 0,-1.148 0,0 m 2.822,-5.752 c 1.375,2.38 1.767,3.919 1.767,5.38 0,2.23 -2.005,3.073 -3.169,3.073 -1.165,0 -3.158,-0.814 -3.158,-3.074 0,-1.443 0.372,-2.994 1.745,-5.358 l -3.222,-5.684 1.373,-2.746 3.227,5.974 3.621,-5.974 1.339,2.486 -3.523,5.923 z"
             style="fill:#58595b;fill-opacity:1;fill-rule:nonzero;stroke:none"
             id="path618"
             inkscape:connector-curvature="0" /></g></g></g><text
       xml:space="preserve"
       style="font-style:normal;font-weight:normal;font-size:32px;line-height:0%;font-family:'Bebas Neue';letter-spacing:0px;word-spacing:0px;fill:#000000;fill-opacity:1;stroke:none;stroke-width:1px;stroke-linecap:butt;stroke-linejoin:miter;stroke-opacity:1;-inkscape-font-specification:'Bebas Neue';font-stretch:normal;font-variant:normal;"
       x="442.40128"
       y="-769.80524"
       id="text4939"
       sodipodi:linespacing="0%"
       transform="scale(1,-1)"><tspan
         sodipodi:role="line"
         id="tspan4941"
         x="442.40128"
         y="-769.80524" /></text>
</g></svg>